# xmcd
#
# Track frame offsets: 
#        150
#        5194
#        20845
#        42794
#        57177
#        73852
#        94107
#        110982
#        125545
#        143170
#        163561
#        185179
#        198970
#        212702
#        229500
#        266687
#
# Disc length: 3589 seconds
#
# Revision: 0
# Processed by: cddbd v1.5.2PL0 Copyright (c) Steve Scherf et al.
# Submitted via: ExactAudioCopy v1.3
#
DISCID=f20e0310
DTITLE=Various Artist - SWB2012 - Cultivate
DYEAR=2012
DGENRE=Soul
TTITLE0=The Harlem Gospel Choir - SWB Introduction
TTITLE1=Dublex Inc. Feat. Bridgette Amofah - It Takes Time
TTITLE2=Kraak And Smaak - Ready For Life
TTITLE3=Margo Sotirovska - Latin On The Streets Of Paris
TTITLE4=Quantic Feat Alice Russell With The Combo Barbaro - Boogaloo 3
TTITLE4=3
TTITLE5=Basement Freaks - Get Down Boogie
TTITLE6=Kabanjak - Clap Your Hands
TTITLE7=United Peace Voices - Eh Mo Ha
TTITLE8=Angela Johnson - Get Myself Together
TTITLE9=Max Sedgely Feat. Tasita D'Mour - All Around Me
TTITLE10=Incognito - We Got Music
TTITLE11=The Bamboos - Medicine Man
TTITLE12=Alice Russell - Pushin On
TTITLE13=The Bamboos - What I Know
TTITLE14=Quantic Feat Alice Russell With The Combo Barbaro - Travellin
TTITLE14=g Song
TTITLE15=Quantic And Alice Russell - Look Around | Reprise
EXTD=
EXTT0=
EXTT1=
EXTT2=
EXTT3=
EXTT4=
EXTT5=
EXTT6=
EXTT7=
EXTT8=
EXTT9=
EXTT10=
EXTT11=
EXTT12=
EXTT13=
EXTT14=
EXTT15=
PLAYORDER=
